<svg xmlns="http://www.w3.org/2000/svg" version="1.1" xmlns:xlink="http://www.w3.org/1999/xlink" xmlns:svgjs="http://svgjs.com/svgjs" width="1920" height="1080" preserveAspectRatio="none" viewBox="0 0 1920 1080"><g mask="url(&quot;#SvgjsMask1016&quot;)" fill="none"><rect width="1920" height="1080" x="0" y="0" fill="#0e2a47"></rect><path d="M960 1398.94C1178.04 1382.96 1358.34 1247.47 1510.22 1090.22 1658.77 936.41 1794.5 753.76 1789.53 540 1784.64 329.74 1627.76 169.43 1485.16 14.84 1333.66-149.42 1182.26-336.32 960-359.37 720.71-384.19 479.51-280.66 313.35-106.65 150.49 63.93 99.56 304.18 101.3 540 103.03 773.75 157.53 1011.89 322.81 1177.19 488.08 1342.54 726.83 1416.01 960 1398.94" fill="#1c538e"></path><path d="M960 1095.79C1101.09 1085.45 1217.75 997.78 1316.03 896.03 1412.14 796.5 1499.97 678.31 1496.76 540 1493.59 403.95 1392.08 300.22 1299.81 200.19 1201.78 93.91 1103.81-27.03 960-41.94 805.16-58 649.1 8.99 541.58 121.58 436.2 231.96 403.25 387.41 404.37 540 405.49 691.25 440.76 845.34 547.7 952.3 654.64 1059.29 809.12 1106.83 960 1095.79" fill="#2774c6"></path><path d="M960 792.63C1024.13 787.93 1077.16 748.08 1121.83 701.83 1165.52 656.59 1205.44 602.87 1203.98 540 1202.54 478.16 1156.4 431.01 1114.46 385.54 1069.9 337.23 1025.37 282.26 960 275.48 889.62 268.18 818.68 298.63 769.81 349.81 721.91 399.98 706.93 470.64 707.44 540 707.95 608.75 723.98 678.79 772.59 727.41 821.2 776.04 891.42 797.65 960 792.63" fill="#488fdb"></path></g><defs><mask id="SvgjsMask1016"><rect width="1920" height="1080" fill="#ffffff"></rect></mask></defs></svg>